<svg version="1.2" xmlns="http://www.w3.org/2000/svg" viewBox="0 0 201 147" width="32" height="32"><style>.a{fill:#3737b0}</style><path fill-rule="evenodd" class="a" d="m248.9 29.1v45.6q0 6.5-2 10.1-2 3.6-5.3 5-3.2 1.4-7 1.4-4.4 0-7.2-1.3-2.8-1.3-4.3-2.7v-7.6h1.1q1.9 2 4.3 3.3 2.3 1.3 4.9 1.3 3.3 0 5.5-2.1 2.3-2.1 2.3-7.4v-38.7h4v-6.9zm-7.7 0v6.9h-18v-6.9zm55.2 51.2q-1.8 4.1-4.8 6.5-3 2.4-6.6 3.4-3.5 1-7 1-3.5 0-7.1-1-3.6-1-6.6-3.4-3-2.4-4.9-6.5-1.8-4.1-1.8-10.2v-41h7.8v40.4q0 4.6 1.6 7.8 1.6 3.1 4.5 4.8 2.8 1.6 6.5 1.6 3.7 0 6.5-1.6 2.8-1.7 4.4-4.8 1.6-3.2 1.6-7.8v-40.4h7.7v41q0 6.1-1.8 10.2zm15.4 9.9h-7.9v-1.6l14.9-59.5 17.2 0.1 14.8 59.4v1.6h-7.9l-4.7-19.6h-21.7zm12.5-54l-6.4 27.5h19l-6.5-27.5zm65.9 42.3l-0.3-49.4h7.6v61.1h-10.6l-21-49.2h-1.1l0.1 49.2h-7.5v-61.1h10.6l21.1 49.4zm70.2-46.1q5.8 3.2 9.2 9.9 3.3 6.8 3.3 17.3 0 10.5-3.3 17.3-3.4 6.7-9.2 10-5.8 3.3-13.1 3.3h-15.7v-61.1h15.7q7.3 0 13.1 3.3zm-0.3 44.5q5-6.2 5-17.3 0-11.3-5-17.3-5-6.1-13-6.1h-7.8v46.8h7.8q8.1 0 13-6.1zm21.1-47.8h30.5v7h-22.8v20.7q2.9-1.2 6.5-1.8 3.6-0.7 7.4-0.9 3.7-0.1 6.8 0.4v6.6l-0.7 0.5q-2.4-0.7-5.9-0.7-3.6 0-7.3 0.6-3.8 0.7-6.8 2v19.7h22.8v7h-30.5zm46.4 61h-7.6v-61h19.4q5.6 0 9.9 2 4.3 2.1 6.8 6.4 2.5 4.4 2.5 11.2 0 6.8-2.6 11.3-2.5 4.6-6.9 6.9-4.3 2.3-9.7 2.3h-11.8zm0-54.1v26.4h11.1q3.4 0 6.1-1.5 2.7-1.4 4.3-4.4 1.7-3 1.7-7.3 0-4.3-1.7-7.3-1.6-2.9-4.3-4.4-2.7-1.5-6.1-1.5zm37.8-7h30.5v7h-22.8v20.8q2.9-1.3 6.5-1.9 3.6-0.7 7.3-0.8 3.8-0.2 6.9 0.3v6.6l-0.7 0.6q-2.4-0.7-5.9-0.7-3.6 0-7.3 0.6-3.8 0.6-6.8 2v19.6h22.8v7h-30.5zm67.5 3.3q5.8 3.2 9.1 10 3.4 6.7 3.4 17.2 0 10.5-3.4 17.3-3.3 6.7-9.1 10-5.8 3.3-13.1 3.3h-15.7v-61.1h15.7q7.3 0 13.1 3.3zm-0.3 44.5q5-6.2 5-17.3 0-11.3-5-17.3-5-6-13-6h-7.8v46.7h7.8q8.1 0 13-6.1zm-440.3-15.5l-0.6 2.4q-0.1 0.7-0.4 1.3-0.4 0.5-0.8 1-0.5 0.5-1.1 0.8-0.6 0.3-1.3 0.5l-17.3 3.7q1.1 2 2 4.1 0.9 2.1 1.5 4.3 0.7 2.2 1.1 4.4 0.3 2.3 0.5 4.6 1.8 0.9 3 2.7c0.7 1.1 1.1 2.5 1.2 3.9 0 1.3-0.3 2.7-1 3.9-0.7 1.2-1.7 2.2-2.9 2.9 0.5 9.8 2.7 21.9 8.1 25.4 0.8 0.5 1.4 1.3 1.6 2.2 0.3 0.9 0.1 1.9-0.4 2.7-0.6 0.8-1.4 1.3-2.3 1.5-1 0.1-1.9-0.1-2.7-0.7-4-2.6-6.5-7.3-8.2-12.6-0.4 6.8 0.1 12.8 2 15.8 0.8 1.3 1.6 1.5 2.2 1.7 0.8 0.1 1.6 0.6 2.1 1.2 0.5 0.7 0.7 1.6 0.6 2.4 0 0.9-0.4 1.6-1 2.2-0.7 0.6-1.5 0.9-2.3 0.9q-1.1-0.1-2.2-0.5-1.1-0.4-2-1-0.9-0.6-1.7-1.4-0.8-0.8-1.4-1.8c-5.5-8.6-2.8-28.1-0.7-38.6-1-0.8-1.8-1.8-2.3-3-0.5-1.2-0.8-2.4-0.6-3.7q0.1-1.9 1.2-3.6c0.7-1 1.7-1.9 2.8-2.5-0.5-6.5-2.4-11.7-5.4-15.9l-24.1 5.1-1.9 8.4c-1 4.4-5.8 8-14.3 9.8-18.1 3.8-45.9-1.8-62.2-12.6-8.6-5.7-12.2-11.7-11.1-16.6l2.1-9.8-37.4-24.7c-1.6-1-2.4-3-1.9-4.9l0.5-2.4c0.4-1.8 1.8-3.3 3.6-3.6l89.2-18.9q0.5-0.1 1-0.1 0.4 0 0.9 0.1 0.4 0.1 0.9 0.3 0.4 0.2 0.8 0.4l80.6 53.3c1.6 1.1 2.4 3.1 2 5zm-94.7-21.7q-0.1 0.9 1.4 2 0.9 0.6 1.9 0.9 1 0.4 2 0.6 1 0.2 2.1 0.3 1 0 2-0.2 1.7-0.4 1.9-1.3l0.3-1.7q0.1-1-1.4-2.1-0.9-0.5-1.9-0.9-0.9-0.4-2-0.6-1-0.2-2-0.2-1.1 0-2.1 0.1-1.8 0.4-1.9 1.4z"/></svg>